<?xml version="1.0" encoding="UTF-8"?>
<svg id="Layer_2" xmlns="http://www.w3.org/2000/svg" viewBox="0 0 809.27 1153.62">
  <defs>
    <style>
      .cls-1 {
        fill: #172c3e;
      }

      .cls-2 {
        fill: #2bcae6;
      }
    </style>
  </defs>
  <g id="Layer_1-2" data-name="Layer_1">
    <g>
      <polygon class="cls-2" points="626.5 0 626.5 309.4 599.08 309.4 599.08 14.81 517.35 14.81 517.35 0 626.5 0"/>
      <g>
        <g>
          <g>
            <path class="cls-1" d="M135.82,1052.48L12.89,921.79v131.52H0v-164.14l122.92,130.81v-132h12.9v164.49Z"/>
            <path class="cls-1" d="M355.63,1053.32h-13.86l-16.13-39.78h-76.45l-16.13,39.78h-13.85l68.21-168.56,68.21,168.56ZM320.39,1000.75l-32.98-81.71-32.96,81.71h65.94Z"/>
            <path class="cls-1" d="M535.77,976.98c8.68,8.61,13.02,19.08,13.02,31.42.08,12.35-4.22,22.86-12.9,31.53-8.6,8.76-20.03,13.18-34.28,13.26v.12h-61.88v-165.33h63.55c10.2.08,19.59,4.46,28.19,13.14,8.68,8.52,13.06,18.92,13.14,31.18.08,12.27-4.22,22.74-12.9,31.42-.96,1.03-2.98,2.86-6.09,5.49,4.53,3.18,7.92,5.77,10.15,7.76ZM452.63,900.89v63.19h47.66c8.76-.08,16.17-3.18,22.22-9.32,6.13-6.21,9.2-13.66,9.2-22.34-.08-8.68-3.18-16.13-9.32-22.34-6.21-6.13-13.66-9.2-22.34-9.2h-47.43ZM504.48,1040.3c8.68,0,16.13-3.11,22.34-9.32,6.13-6.29,9.15-13.78,9.08-22.46,0-8.68-3.11-16.13-9.32-22.34-6.21-6.13-13.66-9.2-22.34-9.2h-51.6v63.32h51.85Z"/>
            <path class="cls-1" d="M689.51,1049.86c-10.27-4.39-19.35-10.55-27.23-18.52-7.97-7.88-14.14-16.96-18.51-27.23-4.54-10.67-6.81-21.82-6.81-33.45s2.27-22.74,6.81-33.33c4.38-10.35,10.55-19.47,18.51-27.36,7.88-7.96,16.96-14.09,27.23-18.4,10.59-4.53,21.74-6.81,33.45-6.81s22.74,2.27,33.33,6.81c10.28,4.31,19.35,10.44,27.23,18.4,8.05,7.88,14.22,17.01,18.52,27.36,4.53,10.59,6.81,21.71,6.81,33.33s-2.27,22.77-6.81,33.45c-4.3,10.27-10.48,19.35-18.52,27.23-7.88,7.97-16.96,14.14-27.23,18.52-10.59,4.46-21.7,6.69-33.33,6.69s-22.86-2.23-33.45-6.69ZM671.12,918.81c-14.34,14.41-21.51,31.7-21.51,51.85s7.17,37.43,21.51,51.84c14.34,14.26,31.61,21.39,51.85,21.39s37.39-7.13,51.73-21.39c14.34-14.41,21.5-31.69,21.5-51.84s-7.16-37.43-21.5-51.85c-14.34-14.26-31.58-21.39-51.73-21.39s-37.51,7.13-51.85,21.39Z"/>
          </g>
          <g>
            <path class="cls-1" d="M25.16,1150.05c3.91,0,7.53-1.04,10.87-3.11,3.23-2,5.61-4.46,7.12-7.36l3.34,1.41c-1.78,3.53-4.58,6.5-8.41,8.91-3.94,2.47-8.24,3.71-12.92,3.71-3.28,0-6.42-.63-9.42-1.89-2.92-1.24-5.5-2.98-7.73-5.23-2.25-2.22-3.99-4.8-5.23-7.73-1.26-2.99-1.89-6.13-1.89-9.42s.63-6.44,1.89-9.45c1.24-2.9,2.98-5.47,5.23-7.7,2.22-2.25,4.8-3.99,7.73-5.23,3-1.26,6.14-1.89,9.42-1.89,4.68,0,8.98,1.24,12.92,3.72,3.82,2.4,6.63,5.37,8.41,8.91l-3.34,1.42c-1.51-2.93-3.89-5.38-7.12-7.36-3.33-2.08-6.96-3.11-10.87-3.11-5.7,0-10.58,2.01-14.65,6.04-4.02,4.07-6.04,8.95-6.04,14.65s2.02,10.58,6.04,14.65c4.08,4.03,8.95,6.04,14.65,6.04Z"/>
            <path class="cls-1" d="M182.11,1152.71h-3.91l-4.56-11.24h-21.59l-4.56,11.24h-3.91l19.27-47.62,19.27,47.62ZM172.16,1137.86l-9.32-23.08-9.32,23.08h18.63Z"/>
            <path class="cls-1" d="M297.77,1106c4.45,0,8.25,1.59,11.4,4.76,3.18,3.13,4.76,6.93,4.76,11.41s-1.58,8.26-4.76,11.41c-3.15,3.18-6.95,4.76-11.4,4.76h-12.57v14.38h-3.64v-46.72h16.2ZM297.77,1134.69c3.44,0,6.38-1.22,8.84-3.65,2.44-2.47,3.67-5.43,3.67-8.88s-1.23-6.4-3.67-8.88c-2.46-2.43-5.4-3.65-8.84-3.65h-12.57v25.05h12.57Z"/>
            <path class="cls-1" d="M414.43,1152.71v-46.72h3.65v46.72h-3.65Z"/>
            <path class="cls-1" d="M555.66,1106v3.65h-17.14v43.07h-3.65v-43.07h-17.35v-3.65h38.14Z"/>
            <path class="cls-1" d="M681.27,1152.71h-3.92l-4.56-11.24h-21.6l-4.56,11.24h-3.92l19.27-47.62,19.27,47.62ZM671.31,1137.86l-9.31-23.08-9.32,23.08h18.63Z"/>
            <path class="cls-1" d="M784.4,1149.07h24.87v3.65h-28.51v-46.72h3.64v43.07Z"/>
          </g>
        </g>
        <polygon class="cls-1" points="126.62 88.74 126.62 720.02 225.76 720.02 225.76 734.84 14.28 734.84 14.28 720.02 111.8 720.02 111.8 14.81 14.28 14.81 14.28 0 225.76 0 626.5 533.23 626.5 745.53 126.62 88.74"/>
      </g>
    </g>
  </g>
</svg>